<svg xmlns="http://www.w3.org/2000/svg" width="15.094" height="16.524" viewBox="0 0 15.094 16.524"><defs><style>.a{fill:none;stroke:#757575;stroke-linecap:round;stroke-linejoin:round;stroke-width:1.5px;}</style></defs><g transform="translate(-2.177 -1.228)"><line class="a" x1="6.724" y1="3.877" transform="translate(6.362 3.652)"/><path class="a" d="M16.448,12.46V6.483A1.494,1.494,0,0,0,15.7,5.191L10.471,2.2a1.494,1.494,0,0,0-1.494,0L3.747,5.191A1.494,1.494,0,0,0,3,6.483V12.46a1.494,1.494,0,0,0,.747,1.292l5.23,2.988a1.494,1.494,0,0,0,1.494,0l5.23-2.988A1.494,1.494,0,0,0,16.448,12.46Z"/><path class="a" d="M3.27,6.96l6.522,3.773L16.314,6.96" transform="translate(-0.068 -1.254)"/><line class="a" y1="7.531" transform="translate(9.724 9.471)"/></g></svg>